<svg version="1.0" xmlns="http://www.w3.org/2000/svg"
 width="512.000000pt" height="512.000000pt" viewBox="0 0 512.000000 512.000000"
 preserveAspectRatio="xMidYMid meet">
<g transform="translate(0.000000,512.000000) scale(0.100000,-0.100000)"
fill="#000000" stroke="none">
<path d="M2967 5025 c-422 -60 -778 -235 -1067 -525 -440 -440 -626 -1064
-500 -1675 44 -214 145 -455 267 -638 l66 -99 -166 -166 -166 -166 -45 42
c-85 78 -39 113 -647 -494 -340 -340 -547 -554 -567 -587 -134 -223 -35 -513
208 -609 41 -16 78 -22 145 -22 110 -1 172 18 252 79 32 23 291 276 576 562
586 587 553 544 475 629 l-42 45 166 166 166 166 93 -62 c108 -73 298 -167
420 -210 311 -107 673 -128 995 -56 388 87 739 296 992 590 547 637 601 1540
133 2236 -273 406 -718 696 -1199 780 -153 27 -419 34 -555 14z m446 -160
c983 -129 1639 -1063 1426 -2030 -75 -337 -273 -671 -532 -896 -457 -398
-1077 -521 -1647 -329 -754 255 -1228 1016 -1125 1803 121 923 961 1572 1878
1452z m-1511 -2966 l61 -61 -161 -161 -162 -162 -62 63 -63 62 160 160 c88 88
161 160 163 160 2 0 31 -27 64 -61z m-437 -439 l180 -180 -495 -496 c-280
-280 -512 -505 -535 -517 -53 -29 -173 -30 -225 -3 -49 26 -98 74 -123 121
-29 53 -30 173 -3 225 15 30 1002 1030 1016 1030 3 0 86 -81 185 -180z"/>
<path d="M3055 4714 c-405 -58 -664 -182 -926 -443 -230 -231 -366 -487 -425
-806 -26 -138 -26 -392 0 -530 59 -319 194 -574 425 -806 231 -230 487 -366
806 -425 138 -26 392 -26 530 0 319 59 575 195 806 425 230 231 366 487 425
806 25 135 26 402 1 530 -64 328 -212 603 -443 826 -222 214 -478 346 -784
404 -81 16 -352 28 -415 19z m420 -182 c543 -118 953 -536 1062 -1082 25 -122
24 -384 -1 -505 -101 -487 -432 -869 -892 -1028 -163 -56 -257 -71 -444 -71
-115 0 -191 5 -250 17 -554 110 -976 532 -1087 1085 -24 120 -24 384 0 504
115 572 557 999 1134 1093 119 19 357 13 478 -13z"/>
<path d="M3120 4120 l0 -200 80 0 80 0 0 200 0 200 -80 0 -80 0 0 -200z"/>
<path d="M2477 4082 c-26 -26 -47 -52 -47 -57 0 -6 70 -80 155 -165 l155 -155
57 58 58 57 -155 155 c-85 85 -159 155 -165 155 -6 0 -32 -22 -58 -48z"/>
<path d="M3702 3977 c-83 -84 -152 -157 -152 -162 0 -13 92 -105 105 -105 6 0
80 70 165 155 l155 155 -55 55 c-30 30 -57 55 -60 55 -3 0 -74 -69 -158 -153z"/>
<path d="M3101 3749 c-131 -26 -266 -131 -326 -253 -82 -166 -71 -321 34 -494
22 -37 46 -83 52 -101 11 -31 10 -36 -7 -45 -10 -6 -40 -32 -65 -57 -47 -47
-69 -101 -69 -171 0 -70 77 -183 138 -202 15 -5 21 -19 26 -62 13 -108 70
-192 168 -245 58 -31 70 -34 148 -33 72 0 93 4 136 26 28 15 65 38 81 52 43
36 91 133 99 199 6 49 10 57 36 68 40 16 102 90 116 137 27 88 7 167 -58 233
-25 25 -54 51 -64 56 -25 14 -18 40 39 133 60 100 86 171 92 255 24 314 -263
566 -576 504z m231 -181 c134 -62 212 -216 179 -356 -7 -27 -35 -87 -62 -133
-27 -46 -57 -110 -67 -141 l-17 -58 -165 0 -165 0 -17 58 c-10 31 -40 95 -68
142 -57 96 -70 134 -70 202 0 228 243 381 452 286z m163 -873 c16 -15 25 -36
25 -55 0 -19 -9 -40 -25 -55 l-24 -25 -271 0 -271 0 -24 25 c-16 15 -25 36
-25 55 0 19 9 40 25 55 l24 25 271 0 271 0 24 -25z m-139 -327 c-7 -39 -31
-74 -70 -102 -20 -16 -42 -21 -86 -21 -44 0 -66 5 -86 21 -39 28 -63 63 -70
102 l-6 32 162 0 163 0 -7 -32z"/>
<path d="M2160 3360 l0 -80 200 0 200 0 0 80 0 80 -200 0 -200 0 0 -80z"/>
<path d="M3840 3360 l0 -80 200 0 200 0 0 80 0 80 -200 0 -200 0 0 -80z"/>
<path d="M2422 2857 c-83 -84 -152 -157 -152 -162 0 -13 92 -105 105 -105 6 0
80 70 165 155 l155 155 -55 55 c-30 30 -57 55 -60 55 -3 0 -74 -69 -158 -153z"/>
<path d="M3757 2962 c-26 -26 -47 -52 -47 -57 0 -6 70 -80 155 -165 l155 -155
57 58 58 57 -155 155 c-85 85 -159 155 -165 155 -6 0 -32 -22 -58 -48z"/>
</g>
</svg>
